<?xml version="1.0" encoding="UTF-8" standalone="no"?>
<svg
   version="1.1"
   width="897"
   height="397"
   style="clip-rule:evenodd;fill-rule:evenodd;image-rendering:optimizeQuality;shape-rendering:geometricPrecision;text-rendering:geometricPrecision"
   id="svg78"
   sodipodi:docname="logo.svg"
   inkscape:version="1.4.2 (ebf0e940, 2025-05-08)"
   xmlns:inkscape="http://www.inkscape.org/namespaces/inkscape"
   xmlns:sodipodi="http://sodipodi.sourceforge.net/DTD/sodipodi-0.dtd"
   xmlns="http://www.w3.org/2000/svg"
   xmlns:svg="http://www.w3.org/2000/svg">
  <defs
     id="defs78">
    <clipPath
       clipPathUnits="userSpaceOnUse"
       id="clipPath79">
      <rect
         style="fill:#ffcc00"
         id="rect80"
         width="899"
         height="396"
         x="116"
         y="84" />
    </clipPath>
  </defs>
  <sodipodi:namedview
     id="namedview78"
     pagecolor="#ffffff"
     bordercolor="#000000"
     borderopacity="0.25"
     inkscape:showpageshadow="2"
     inkscape:pageopacity="0.0"
     inkscape:pagecheckerboard="0"
     inkscape:deskcolor="#d1d1d1"
     inkscape:zoom="1"
     inkscape:cx="555.5"
     inkscape:cy="211"
     inkscape:window-width="1648"
     inkscape:window-height="767"
     inkscape:window-x="2192"
     inkscape:window-y="52"
     inkscape:window-maximized="0"
     inkscape:current-layer="svg78" />
  <g
     id="g1"
     clip-path="url(#clipPath79)"
     transform="translate(-115,-83)">
   <path
      style="opacity:1"
      fill="none"
       d="m -0.5,-0.5 c 361,0 722,0 1083,0 0,182.333 0,364.667 0,547 -361,0 -722,0 -1083,0 0,-182.333 0,-364.667 0,-547 z"
       id="path1" />
  </g>
  <g
     id="g2"
     transform="translate(-115,-83)">
    <path
       style="opacity:1"
       fill="#b1b1b1"
       d="m 463.5,101.5 c 11.488,-0.995 23.155,-1.328 35,-1 0,2.667 0,5.333 0,8 -8.667,0 -17.333,0 -26,0 8.15,-0.993 16.483,-1.326 25,-1 0,-2 0,-4 0,-6 -11.333,0 -22.667,0 -34,0 z"
       id="path2" />
  </g>
  <g
     id="g3"
     transform="translate(-115,-83)">
    <path
       style="opacity:1"
       fill="#b4b4b4"
       d="m 605.5,101.5 c -13.333,0 -26.667,0 -40,0 0,2 0,4 0,6 5.195,-0.321 10.195,0.013 15,1 -5.333,0 -10.667,0 -16,0 0,-2.667 0,-5.333 0,-8 13.844,-0.329 27.51,0.004 41,1 z"
       id="path3" />
  </g>
  <g
     id="g4"
     transform="translate(-115,-83)">
   <path
      style="opacity:1"
      fill="var(--accent-orange, #ff6b00)"
       d="m 463.5,101.5 c 11.333,0 22.667,0 34,0 0,2 0,4 0,6 -8.517,-0.326 -16.85,0.007 -25,1 0,4 0,8 0,12 7.667,0 15.333,0 23,0 0,2.333 0,4.667 0,7 -7.667,0 -15.333,0 -23,0 0,4.333 0,8.667 0,13 8.484,0.993 17.151,1.326 26,1 0,2 0,4 0,6 -11.667,0 -23.333,0 -35,0 0,-15.333 0,-30.667 0,-46 z"
       id="path4" />
  </g>
  <g
     id="g5"
     transform="translate(-115,-83)">
   <path
      style="opacity:1"
      fill="var(--accent-orange, #ff6b00)"
       d="m 508.5,100.5 c 3,0 6,0 9,0 0,13.333 0,26.667 0,40 8.333,0 16.667,0 25,0 0,2.667 0,5.333 0,8 -11.333,0 -22.667,0 -34,0 0,-16 0,-32 0,-48 z"
       id="path5" />
  </g>
  <g
     id="g6"
     transform="translate(-115,-83)">
   <path
      style="opacity:1"
      fill="var(--accent-orange, #ff6b00)"
       d="m 550.5,100.5 c 2.667,0 5.333,0 8,0 0,16 0,32 0,48 -2.667,0 -5.333,0 -8,0 0,-16 0,-32 0,-48 z"
       id="path6" />
  </g>
  <g
     id="g7"
     transform="translate(-115,-83)">
   <path
      style="opacity:1"
      fill="var(--accent-orange, #ff6b00)"
       d="m 605.5,101.5 c 0,2 0,4 0,6 -5.333,0 -10.667,0 -16,0 0,13.333 0,26.667 0,40 -2.667,0 -5.333,0 -8,0 0.329,-13.177 -0.005,-26.177 -1,-39 -4.805,-0.987 -9.805,-1.321 -15,-1 0,-2 0,-4 0,-6 13.333,0 26.667,0 40,0 z"
       id="path7" />
  </g>
  <g
     id="g8"
     transform="translate(-115,-83)">
   <path
      style="opacity:1"
      fill="var(--accent-orange, #ff6b00)"
       d="m 621.5,108.5 c 0,4 0,8 0,12 7.667,0 15.333,0 23,0 0,2.333 0,4.667 0,7 -7.667,0 -15.333,0 -23,0 0,4.333 0,8.667 0,13 8.484,0.993 17.151,1.326 26,1 0,2 0,4 0,6 -11.333,0 -22.667,0 -34,0 0,-15.333 0,-30.667 0,-46 11,0 22,0 33,0 0,2 0,4 0,6 -8.517,-0.326 -16.85,0.007 -25,1 z"
       id="path8" />
  </g>
  <g
     id="g9"
     transform="translate(-115,-83)">
    <path
       style="opacity:1"
       fill="#8d8d8d"
       d="m 580.5,108.5 c 0.995,12.823 1.329,25.823 1,39 2.667,0 5.333,0 8,0 0,0.333 0,0.667 0,1 -3,0 -6,0 -9,0 0,-13.333 0,-26.667 0,-40 z"
       id="path9" />
  </g>
  <g
     id="g10"
     transform="translate(-115,-83)">
    <path
       style="opacity:1"
       fill="#606060"
       d="m 605.5,107.5 c -4.805,0.987 -9.805,1.321 -15,1 0.329,13.51 -0.004,26.844 -1,40 0,-0.333 0,-0.667 0,-1 0,-13.333 0,-26.667 0,-40 5.333,0 10.667,0 16,0 z"
       id="path10" />
  </g>
  <g
     id="g11"
     transform="translate(-115,-83)">
    <path
       style="opacity:1"
       fill="#303030"
       d="m 621.5,108.5 c 0.333,0 0.667,0 1,0 0,3.667 0,7.333 0,11 7.519,-0.325 14.852,0.008 22,1 -7.667,0 -15.333,0 -23,0 0,-4 0,-8 0,-12 z"
       id="path11" />
  </g>
  <g
     id="g12"
     transform="translate(-115,-83)">
    <path
       style="opacity:1"
       fill="#3e3e3e"
       d="m 644.5,127.5 c -7.148,0.992 -14.481,1.325 -22,1 0,4 0,8 0,12 -0.333,0 -0.667,0 -1,0 0,-4.333 0,-8.667 0,-13 7.667,0 15.333,0 23,0 z"
       id="path12" />
  </g>
  <g
     id="g13"
     transform="translate(-115,-83)">
    <path
       style="opacity:1"
       fill="#b1b1b1"
       d="m 472.5,140.5 c 9,0 18,0 27,0 0,2.667 0,5.333 0,8 -12.178,0.328 -24.178,-0.005 -36,-1 11.822,0.995 23.822,1.328 36,1 0,-2.667 0,-5.333 0,-8 -9,0 -18,0 -27,0 z"
       id="path13" />
  </g>
  <g
     id="g14"
     transform="translate(-115,-83)">
    <path
       style="opacity:1"
       fill="#b0b0b0"
       d="m 622.5,108.5 c -0.333,0 -0.667,0 -1,0 8.15,-0.993 16.483,-1.326 25,-1 0,-2 0,-4 0,-6 -11,0 -22,0 -33,0 0,15.333 0,30.667 0,46 11.333,0 22.667,0 34,0 0,-2 0,-4 0,-6 -8.849,0.326 -17.516,-0.007 -26,-1 0.333,0 0.667,0 1,0 8.667,0 17.333,0 26,0 0,2.667 0,5.333 0,8 -12,0 -24,0 -36,0 0,-16 0,-32 0,-48 11.667,0 23.333,0 35,0 0,2.667 0,5.333 0,8 -8.333,0 -16.667,0 -25,0 z"
       id="path14" />
  </g>
  <g
     id="g15"
     transform="translate(-115,-83)">
   <path
      style="opacity:1"
      fill="var(--accent-orange, #ff6b00)"
       d="m 591.5,197.5 c 130.996,1.998 262.329,2.665 394,2 0,6.333 0,12.667 0,19 -121.335,-0.333 -242.668,0 -364,1 0.124,0.607 0.457,0.94 1,1 0,0.667 0.333,1 1,1 4.158,5.163 7.491,10.83 10,17 116.995,1.998 234.329,2.665 352,2 0,6.333 0,12.667 0,19 -115.333,0 -230.667,0 -346,0 -0.284,1.915 0.049,3.581 1,5 0.197,6.045 -0.137,12.045 -1,18 115.165,1 230.499,1.333 346,1 0,6.333 0,12.667 0,19 -117.835,-0.333 -235.501,0 -353,1 -4.174,7.016 -8.841,13.683 -14,20 -0.667,0.333 -1.333,0.667 -2,1 -0.543,0.06 -0.876,0.393 -1,1 123.332,1 246.665,1.333 370,1 0,6.333 0,12.667 0,19 -136.834,-0.333 -273.501,0 -410,1 -13.274,2.472 -26.608,2.639 -40,0.5 -136.666,-0.5 -273.333,-0.667 -410,-0.5 0,-6.667 0,-13.333 0,-20 123.335,0.333 246.668,0 370,-1 -0.124,-0.607 -0.457,-0.94 -1,-1 0,-0.667 -0.333,-1 -1,-1 -5.515,-5.853 -10.182,-12.353 -14,-19.5 -118,-0.5 -236,-0.667 -354,-0.5 0,-7 0,-14 0,-21 115.667,0 231.333,0 347,0 -0.892,-7.291 -1.226,-14.624 -1,-22 -115.333,0 -230.667,0 -346,0 0,-7 0,-14 0,-21 118.005,0.665 235.671,-0.002 353,-2 2.822,-5.642 6.155,-10.975 10,-16 0.667,0 1,-0.333 1,-1 0.543,-0.06 0.876,-0.393 1,-1 -121.665,-1 -243.332,-1.333 -365,-1 0,-6.667 0,-13.333 0,-20 131.334,0.167 262.667,0 394,-0.5 14.644,-6.594 29.977,-8.927 46,-7 8.933,1.566 17.599,3.733 26,6.5 z"
       id="path15" />
  </g>
  <g
     id="g16"
     transform="translate(-115,-83)">
    <path
       style="opacity:1"
       fill="#6c6c6c"
       d="m 544.5,196.5 c 3.462,-0.982 7.129,-1.315 11,-1 0.172,0.992 -0.162,1.658 -1,2 -3.125,-0.979 -6.458,-1.313 -10,-1 z"
       id="path16" />
  </g>
  <g
     id="g17"
     transform="translate(-115,-83)">
    <path
       style="opacity:1"
       fill="#747474"
       d="m 564.5,196.5 c -2.45,-0.202 -4.783,0.131 -7,1 0.652,-1.225 1.819,-1.892 3.5,-2 1.385,0.014 2.551,0.348 3.5,1 z"
       id="path17" />
  </g>
  <g
     id="g18"
     transform="translate(-115,-83)">
    <path
       style="opacity:1"
       fill="#050505"
       d="m 542.5,196.5 c 0.667,0 1.333,0 2,0 3.542,-0.313 6.875,0.021 10,1 -1.274,2.493 -1.94,5.159 -2,8 -1.554,4.067 -2.22,8.4 -2,13 -0.799,2.93 -1.132,5.93 -1,9 -0.904,0.709 -1.237,1.709 -1,3 -5,0 -10,0 -15,0 0.534,-5.401 -0.633,-10.401 -3.5,-15 -3.968,-3.402 -8.468,-5.902 -13.5,-7.5 0.556,-0.383 0.889,-0.883 1,-1.5 4.461,-3.276 9.461,-5.609 15,-7 3.662,-0.223 6.995,-1.223 10,-3 z"
       id="path18" />
  </g>
  <g
     id="g19"
     transform="translate(-115,-83)">
    <path
       style="opacity:1"
       fill="#070707"
       d="m 564.5,196.5 c 12.147,0.91 23.147,4.91 33,12 -3.333,0.667 -6.667,1.333 -10,2 -10.326,3.5 -16.659,10.666 -19,21.5 -4.708,0.496 -9.375,0.162 -14,-1 -0.785,-11.243 0.215,-22.409 3,-33.5 2.217,-0.869 4.55,-1.202 7,-1 z"
       id="path19" />
  </g>
  <g
     id="g20"
     transform="translate(-115,-83)">
    <path
       style="opacity:1"
       fill="#606060"
       d="m 542.5,196.5 c -3.005,1.777 -6.338,2.777 -10,3 3.005,-1.777 6.338,-2.777 10,-3 z"
       id="path20" />
  </g>
  <g
     id="g21"
     transform="translate(-115,-83)">
    <path
       style="opacity:1"
       fill="#dadada"
       d="m 555.5,195.5 c 0.667,0.667 1.333,1.333 2,2 -2.785,11.091 -3.785,22.257 -3,33.5 4.625,1.162 9.292,1.496 14,1 2.341,-10.834 8.674,-18 19,-21.5 3.682,-0.165 7.348,0.001 11,0.5 -2.536,0.186 -4.869,0.686 -7,1.5 -8.646,1.317 -14.646,5.984 -18,14 -1.122,1.788 -1.289,3.788 -0.5,6 1.356,0.88 2.856,1.214 4.5,1 10.464,2.372 20.798,5.539 31,9.5 4.508,2.753 8.841,5.753 13,9 2.288,2.743 4.455,5.577 6.5,8.5 0.69,1.238 1.19,1.238 1.5,0 1.073,1.847 1.073,3.847 0,6 -4.505,-7.943 -10.839,-14.109 -19,-18.5 -10.566,-5.978 -21.899,-9.811 -34,-11.5 -1.6,0.051 -3.1,0.384 -4.5,1 -1.01,5.564 -0.343,10.898 2,16 9.653,15.967 19.32,31.967 29,48 3.474,6.585 4.974,13.585 4.5,21 -0.722,-3.891 -1.556,-7.891 -2.5,-12 -0.483,0.948 -0.649,1.948 -0.5,3 -1.522,-4.719 -3.355,-9.386 -5.5,-14 -9.428,-14.423 -18.428,-29.09 -27,-44 -2.764,-6.39 -3.931,-13.057 -3.5,-20 -3.333,0 -6.667,0 -10,0 -1.765,-0.961 -3.765,-1.295 -6,-1 -0.744,3.619 -1.077,7.285 -1,11 0,1.333 0,2.667 0,4 -1.514,9.285 -2.181,18.785 -2,28.5 0,6.675 0.334,13.175 1,19.5 0.572,12.672 1.238,25.339 2,38 -0.617,-0.111 -1.117,-0.444 -1.5,-1 -0.181,3.195 -0.681,6.195 -1.5,9 -2.928,-33.298 -3.595,-66.631 -2,-100 0.977,-2.787 1.31,-5.787 1,-9 -5.195,-0.321 -10.195,0.013 -15,1 -1.255,6.934 -3.422,13.6 -6.5,20 -8.79,12.133 -16.79,24.8 -24,38 -2.868,6.716 -4.035,13.716 -3.5,21 -2.09,1.291 -3.424,0.624 -4,-2 0.824,-3.812 1.324,-7.812 1.5,-12 6.267,-15.871 14.6,-30.537 25,-44 4.096,-6.162 6.429,-12.829 7,-20 -1.473,-1.507 -3.307,-2.174 -5.5,-2 -16.28,2.289 -29.614,9.622 -40,22 -0.295,-2.235 0.039,-4.235 1,-6 -0.131,0.739 0.036,1.406 0.5,2 4.959,-5.965 10.792,-10.798 17.5,-14.5 8.753,-3.342 17.587,-6.175 26.5,-8.5 1.407,-12.766 -4.426,-19.099 -17.5,-19 1.068,-0.934 2.401,-1.268 4,-1 -0.215,-1.679 0.452,-2.679 2,-3 -0.111,0.617 -0.444,1.117 -1,1.5 5.032,1.598 9.532,4.098 13.5,7.5 2.867,4.599 4.034,9.599 3.5,15 5.14,0.988 10.474,1.321 16,1 0,-1.333 0,-2.667 0,-4 -0.132,-3.07 0.201,-6.07 1,-9 1.554,-4.067 2.22,-8.4 2,-13 0.06,-2.841 0.726,-5.507 2,-8 0.838,-0.342 1.172,-1.008 1,-2 z"
       id="path21" />
  </g>
  <g
     id="g22"
     transform="translate(-115,-83)">
    <path
       style="opacity:1"
       fill="#d5d5d5"
       d="m 591.5,197.5 c 131.597,0.998 263.263,1.331 395,1 0,6.667 0,13.333 0,20 -0.333,0 -0.667,0 -1,0 0,-6.333 0,-12.667 0,-19 -131.671,0.665 -263.004,-0.002 -394,-2 z"
       id="path22" />
  </g>
  <g
     id="g23"
     transform="translate(-115,-83)">
    <path
       style="opacity:1"
       fill="#989898"
       d="m 597.5,208.5 c 3.026,0.337 5.026,2.004 6,5 -3.934,-0.86 -7.934,-1.193 -12,-1 2.131,-0.814 4.464,-1.314 7,-1.5 -3.652,-0.499 -7.318,-0.665 -11,-0.5 3.333,-0.667 6.667,-1.333 10,-2 z"
       id="path23" />
  </g>
  <g
     id="g24"
     transform="translate(-115,-83)">
    <path
       style="opacity:1"
       fill="#0a0a0a"
       d="m 511.5,210.5 c 13.074,-0.099 18.907,6.234 17.5,19 -8.913,2.325 -17.747,5.158 -26.5,8.5 -6.708,3.702 -12.541,8.535 -17.5,14.5 -0.464,-0.594 -0.631,-1.261 -0.5,-2 4.265,-16.586 13.265,-29.92 27,-40 z"
       id="path24" />
  </g>
  <g
     id="g25"
     transform="translate(-115,-83)">
    <path
       style="opacity:1"
       fill="#080808"
       d="m 591.5,212.5 c 4.066,-0.193 8.066,0.14 12,1 14.653,12.303 23.32,27.969 26,47 -0.31,1.238 -0.81,1.238 -1.5,0 -2.045,-2.923 -4.212,-5.757 -6.5,-8.5 -4.159,-3.247 -8.492,-6.247 -13,-9 -10.202,-3.961 -20.536,-7.128 -31,-9.5 -3.487,-0.888 -4.82,-3.221 -4,-7 3.354,-8.016 9.354,-12.683 18,-14 z"
       id="path25" />
  </g>
  <g
     id="g26"
     transform="translate(-115,-83)">
    <path
       style="opacity:1"
       fill="#9e9e9e"
       d="m 552.5,205.5 c 0.22,4.6 -0.446,8.933 -2,13 -0.22,-4.6 0.446,-8.933 2,-13 z"
       id="path26" />
  </g>
  <g
     id="g27"
     transform="translate(-115,-83)">
    <path
       style="opacity:1"
       fill="#989898"
       d="m 125.5,219.5 c 0,-0.333 0,-0.667 0,-1 121.668,-0.333 243.335,0 365,1 -0.124,0.607 -0.457,0.94 -1,1 -121.166,-1 -242.499,-1.333 -364,-1 z"
       id="path27" />
  </g>
  <g
     id="g28"
     transform="translate(-115,-83)">
    <path
       style="opacity:1"
       fill="#989898"
       d="m 985.5,218.5 c 0.333,0 0.667,0 1,0 0,0.333 0,0.667 0,1 -121.501,-0.333 -242.834,0 -364,1 -0.543,-0.06 -0.876,-0.393 -1,-1 121.332,-1 242.665,-1.333 364,-1 z"
       id="path28" />
  </g>
  <g
     id="g29"
     transform="translate(-115,-83)">
    <path
       style="opacity:1"
       fill="#181818"
       d="m 125.5,219.5 c 121.501,-0.333 242.834,0 364,1 0,0.667 -0.333,1 -1,1 -121,-0.667 -242,-1.333 -363,-2 z"
       id="path29" />
  </g>
  <g
     id="g30"
     transform="translate(-115,-83)">
    <path
       style="opacity:1"
       fill="#181818"
       d="m 986.5,219.5 c -121,0.667 -242,1.333 -363,2 -0.667,0 -1,-0.333 -1,-1 121.166,-1 242.499,-1.333 364,-1 z"
       id="path30" />
  </g>
  <g
     id="g31"
     transform="translate(-115,-83)">
    <path
       style="opacity:1"
       fill="#5e5e5e"
       d="m 573.5,226.5 c -0.82,3.779 0.513,6.112 4,7 -1.644,0.214 -3.144,-0.12 -4.5,-1 -0.789,-2.212 -0.622,-4.212 0.5,-6 z"
       id="path31" />
  </g>
  <g
     id="g32"
     transform="translate(-115,-83)">
    <path
       style="opacity:1"
       fill="#6c6c6c"
       d="m 549.5,227.5 c 0,1.333 0,2.667 0,4 -5.526,0.321 -10.86,-0.012 -16,-1 5,0 10,0 15,0 -0.237,-1.291 0.096,-2.291 1,-3 z"
       id="path32" />
  </g>
  <g
     id="g33"
     transform="translate(-115,-83)">
    <path
       style="opacity:1"
       fill="#464646"
       d="m 533.5,235.5 c 4.805,-0.987 9.805,-1.321 15,-1 0.31,3.213 -0.023,6.213 -1,9 0,-2.667 0,-5.333 0,-8 -4.667,0 -9.333,0 -14,0 z"
       id="path33" />
  </g>
  <g
     id="g34"
     transform="translate(-115,-83)">
    <path
       style="opacity:1"
       fill="#050505"
       d="m 495.5,312.5 c -11.279,-17.113 -15.279,-35.78 -12,-56 10.386,-12.378 23.72,-19.711 40,-22 2.193,-0.174 4.027,0.493 5.5,2 -0.571,7.171 -2.904,13.838 -7,20 -10.4,13.463 -18.733,28.129 -25,44 -0.176,4.188 -0.676,8.188 -1.5,12 z"
       id="path34" />
  </g>
  <g
     id="g35"
     transform="translate(-115,-83)">
    <path
       style="opacity:1"
       fill="#040404"
       d="m 533.5,235.5 c 4.667,0 9.333,0 14,0 0,2.667 0,5.333 0,8 -1.595,33.369 -0.928,66.702 2,100 -18.277,-1.556 -33.777,-8.889 -46.5,-22 -1.705,-2.077 -2.872,-4.41 -3.5,-7 -0.535,-7.284 0.632,-14.284 3.5,-21 7.21,-13.2 15.21,-25.867 24,-38 3.078,-6.4 5.245,-13.066 6.5,-20 z"
       id="path35" />
  </g>
  <g
     id="g36"
     transform="translate(-115,-83)">
    <path
       style="opacity:1"
       fill="#030303"
       d="m 558.5,235.5 c 3.333,0 6.667,0 10,0 -0.431,6.943 0.736,13.61 3.5,20 8.572,14.91 17.572,29.577 27,44 2.145,4.614 3.978,9.281 5.5,14 0.29,4.436 -0.21,8.77 -1.5,13 -7.105,6.633 -15.272,11.299 -24.5,14 -2.652,-0.09 -4.985,0.576 -7,2 -6.297,0.82 -12.631,1.153 -19,1 0,-2.667 0,-5.333 0,-8 -0.762,-12.661 -1.428,-25.328 -2,-38 -0.157,-16.014 0.176,-32.014 1,-48 0,-1.333 0,-2.667 0,-4 1.081,-3.127 1.747,-6.46 2,-10 1.667,0 3.333,0 5,0 z"
       id="path36" />
  </g>
  <g
     id="g37"
     transform="translate(-115,-83)">
    <path
       style="opacity:1"
       fill="#030303"
       d="m 629.5,266.5 c 0.279,7.437 -0.388,14.77 -2,22 -1.371,2.436 -2.371,5.103 -3,8 -3.678,10.038 -9.345,18.704 -17,26 0.474,-7.415 -1.026,-14.415 -4.5,-21 -9.68,-16.033 -19.347,-32.033 -29,-48 -2.343,-5.102 -3.01,-10.436 -2,-16 1.4,-0.616 2.9,-0.949 4.5,-1 12.101,1.689 23.434,5.522 34,11.5 8.161,4.391 14.495,10.557 19,18.5 z"
       id="path37" />
  </g>
  <g
     id="g38"
     transform="translate(-115,-83)">
    <path
       style="opacity:1"
       fill="#1b1b1b"
       d="m 478.5,237.5 c -117.329,1.998 -234.995,2.665 -353,2 117.569,-0.669 235.236,-1.335 353,-2 z"
       id="path38" />
  </g>
  <g
     id="g39"
     transform="translate(-115,-83)">
    <path
       style="opacity:1"
       fill="#5d5d5d"
       d="m 558.5,235.5 c -1.667,0 -3.333,0 -5,0 -0.253,3.54 -0.919,6.873 -2,10 -0.077,-3.715 0.256,-7.381 1,-11 2.235,-0.295 4.235,0.039 6,1 z"
       id="path39" />
  </g>
  <g
     id="g40"
     transform="translate(-115,-83)">
    <path
       style="opacity:1"
       fill="#afafaf"
       d="m 633.5,238.5 c 117.596,0.998 235.263,1.331 353,1 0,7 0,14 0,21 -115.333,0 -230.667,0 -346,0 0,1.333 0,2.667 0,4 -0.951,-1.419 -1.284,-3.085 -1,-5 115.333,0 230.667,0 346,0 0,-6.333 0,-12.667 0,-19 -117.671,0.665 -235.005,-0.002 -352,-2 z"
       id="path40" />
  </g>
  <g
     id="g41"
     transform="translate(-115,-83)">
    <path
       style="opacity:1"
       fill="#656565"
       d="m 551.5,249.5 c -0.824,15.986 -1.157,31.986 -1,48 -0.666,-6.325 -1,-12.825 -1,-19.5 -0.181,-9.715 0.486,-19.215 2,-28.5 z"
       id="path41" />
  </g>
  <g
     id="g42"
     transform="translate(-115,-83)">
    <path
       style="opacity:1"
       fill="#c3c3c3"
       d="m 639.5,282.5 c 115.667,0 231.333,0 347,0 0,7 0,14 0,21 -118,0 -236,0 -354,0 117.499,-1 235.165,-1.333 353,-1 0,-6.333 0,-12.667 0,-19 -115.501,0.333 -230.835,0 -346,-1 z"
       id="path42" />
  </g>
  <g
     id="g43"
     transform="translate(-115,-83)">
    <path
       style="opacity:1"
       fill="#919191"
       d="m 627.5,288.5 c 0.155,3.216 -0.845,5.883 -3,8 0.629,-2.897 1.629,-5.564 3,-8 z"
       id="path43" />
  </g>
  <g
     id="g44"
     transform="translate(-115,-83)">
    <path
       style="opacity:1"
       fill="#2e2e2e"
       d="m 618.5,323.5 c 122.667,0.667 245.333,1.333 368,2 -123.501,0.333 -246.834,0 -370,-1 0.667,-0.333 1.333,-0.667 2,-1 z"
       id="path44" />
  </g>
  <g
     id="g45"
     transform="translate(-115,-83)">
    <path
       style="opacity:1"
       fill="#2e2e2e"
       d="m 493.5,323.5 c 0.667,0 1,0.333 1,1 -122.832,1 -245.832,1.333 -369,1 122.667,-0.667 245.333,-1.333 368,-2 z"
       id="path45" />
  </g>
  <g
     id="g46"
     transform="translate(-115,-83)">
    <path
       style="opacity:1"
       fill="#b6b6b6"
       d="m 494.5,324.5 c 0.543,0.06 0.876,0.393 1,1 -123.332,1 -246.665,1.333 -370,1 0,-0.333 0,-0.667 0,-1 123.168,0.333 246.168,0 369,-1 z"
       id="path46" />
  </g>
  <g
     id="g47"
     transform="translate(-115,-83)">
    <path
       style="opacity:1"
       fill="#b0b0b0"
       d="m 616.5,324.5 c 123.166,1 246.499,1.333 370,1 0,7 0,14 0,21 -137,0 -274,0 -411,0 136.499,-1 273.166,-1.333 410,-1 0,-6.333 0,-12.667 0,-19 -123.335,0.333 -246.668,0 -370,-1 0.124,-0.607 0.457,-0.94 1,-1 z"
       id="path47" />
  </g>
  <g
     id="g48"
     transform="translate(-115,-83)">
    <path
       style="opacity:1"
       fill="#9c9c9c"
       d="m 578.5,340.5 c -2.015,1.424 -4.348,2.09 -7,2 2.015,-1.424 4.348,-2.09 7,-2 z"
       id="path48" />
  </g>
  <g
     id="g49"
     transform="translate(-115,-83)">
   <path
      style="opacity:1"
      fill="var(--accent-orange, #ff6b00)"
       d="m 338.5,458.5 c -6.036,0.14 -12.036,-0.193 -18,-1 -14.268,-6.872 -19.768,-18.205 -16.5,-34 5.011,-11.595 13.844,-17.928 26.5,-19 8.801,0.197 16.135,3.364 22,9.5 -1.798,2.966 -4.131,5.466 -7,7.5 -9.523,-8.329 -18.689,-7.996 -27.5,1 -4.111,8.516 -2.944,16.182 3.5,23 8.37,4.256 16.37,3.59 24,-2 2.437,1.303 4.604,2.97 6.5,5 0.711,1.867 0.211,3.367 -1.5,4.5 -3.699,2.51 -7.699,4.343 -12,5.5 z"
       id="path49" />
  </g>
  <g
     id="g50"
     transform="translate(-115,-83)">
   <path
      style="opacity:1"
      fill="var(--accent-orange, #ff6b00)"
       d="m 390.5,458.5 c -6.789,0.299 -13.456,-0.368 -20,-2 -7.476,-3.317 -12.31,-8.983 -14.5,-17 -3.075,-20.93 5.925,-32.596 27,-35 22.212,2.194 31.546,14.194 28,36 -3.615,9.788 -10.448,15.788 -20.5,18 z"
       id="path50" />
  </g>
  <g
     id="g51"
     transform="translate(-115,-83)">
    <path
       style="opacity:1"
       fill="#999999"
       d="m 529.5,406.5 c 15.158,-0.996 30.491,-1.33 46,-1 0.313,3.542 -0.021,6.875 -1,10 0,-3 0,-6 0,-9 -15,0 -30,0 -45,0 z"
       id="path51" />
  </g>
  <g
     id="g52"
     transform="translate(-115,-83)">
    <path
       style="opacity:1"
       fill="#9b9b9b"
       d="m 597.5,406.5 c 15.158,-0.996 30.491,-1.33 46,-1 0.313,3.542 -0.021,6.875 -1,10 0,-3 0,-6 0,-9 -15,0 -30,0 -45,0 z"
       id="path52" />
  </g>
  <g
     id="g53"
     transform="translate(-115,-83)">
   <path
      style="opacity:1"
      fill="var(--accent-orange, #ff6b00)"
       d="m 718.5,447.5 c 4.762,2.477 9.762,2.644 15,0.5 0.556,-0.383 0.889,-0.883 1,-1.5 1.334,-1.152 2.834,-2.152 4.5,-3 2.784,1.78 5.284,3.947 7.5,6.5 -7.465,8.376 -16.799,11.376 -28,9 -11.264,-3.096 -18.264,-10.263 -21,-21.5 -0.087,-5.037 0.246,-10.037 1,-15 3.769,-9.595 10.769,-15.428 21,-17.5 10.107,-1.099 18.94,1.734 26.5,8.5 -1.508,2.843 -3.842,5.177 -7,7 -8.677,-6.602 -17.343,-6.602 -26,0 -4.309,7.076 -4.643,14.409 -1,22 1.777,2.29 3.944,3.957 6.5,5 z"
       id="path53" />
  </g>
  <g
     id="g54"
     transform="translate(-115,-83)">
    <path
       style="opacity:1"
       fill="#c4c4c4"
       d="m 433.5,437.5 c -0.994,-10.153 -1.328,-20.486 -1,-31 -3.333,0 -6.667,0 -10,0 0,12 0,24 0,36 -0.995,-12.155 -1.329,-24.489 -1,-37 4,0 8,0 12,0 0,10.667 0,21.333 0,32 z"
       id="path54" />
  </g>
  <g
     id="g55"
     transform="translate(-115,-83)">
   <path
      style="opacity:1"
      fill="var(--accent-orange, #ff6b00)"
       d="m 433.5,437.5 c 2.709,11.368 9.376,14.202 20,8.5 2.193,-2.025 3.193,-4.525 3,-7.5 0.994,-10.487 1.328,-21.154 1,-32 3.667,0 7.333,0 11,0 0,11.667 0,23.333 0,35 -1.941,9.275 -7.608,14.941 -17,17 -5.703,0.125 -11.37,-0.208 -17,-1 -6.6,-2.841 -10.6,-7.841 -12,-15 0,-12 0,-24 0,-36 3.333,0 6.667,0 10,0 -0.328,10.514 0.006,20.847 1,31 z"
       id="path55" />
  </g>
  <g
     id="g56"
     transform="translate(-115,-83)">
    <path
       style="opacity:1"
       fill="#707070"
       d="m 468.5,441.5 c 0,-11.667 0,-23.333 0,-35 -3.667,0 -7.333,0 -11,0 0.328,10.846 -0.006,21.513 -1,32 0,-11 0,-22 0,-33 4.333,0 8.667,0 13,0 0.328,12.178 -0.005,24.178 -1,36 z"
       id="path56" />
  </g>
  <g
     id="g57"
     transform="translate(-115,-83)">
    <path
       style="opacity:1"
       fill="#a4a4a4"
       d="m 509.5,406.5 c -9.333,0 -18.667,0 -28,0 0,17 0,34 0,51 3.667,0 7.333,0 11,0 -0.318,-4.532 0.015,-8.866 1,-13 0,4.667 0,9.333 0,14 -4.333,0 -8.667,0 -13,0 0,-17.667 0,-35.333 0,-53 9.848,-0.327 19.514,0.006 29,1 z"
       id="path57" />
  </g>
  <g
     id="g58"
     transform="translate(-115,-83)">
   <path
      style="opacity:1"
      fill="var(--accent-orange, #ff6b00)"
       d="m 509.5,406.5 c 15.599,3.764 20.432,13.097 14.5,28 -2.522,2.522 -5.022,5.022 -7.5,7.5 3.121,5.291 6.454,10.457 10,15.5 -4.333,1.333 -8.667,1.333 -13,0 -2.753,-4.508 -5.753,-8.841 -9,-13 -3.815,-1.308 -7.481,-1.308 -11,0 -0.985,4.134 -1.318,8.468 -1,13 -3.667,0 -7.333,0 -11,0 0,-17 0,-34 0,-51 9.333,0 18.667,0 28,0 z"
       id="path58" />
  </g>
  <g
     id="g59"
     transform="translate(-115,-83)">
   <path
      style="opacity:1"
      fill="var(--accent-orange, #ff6b00)"
       d="m 529.5,406.5 c 15,0 30,0 45,0 0,3 0,6 0,9 -5.333,0 -10.667,0 -16,0 0,14.333 0,28.667 0,43 -4,0 -8,0 -12,0 0,-14.333 0,-28.667 0,-43 -5.667,0 -11.333,0 -17,0 0,-3 0,-6 0,-9 z"
       id="path59" />
  </g>
  <g
     id="g60"
     transform="translate(-115,-83)">
   <path
      style="opacity:1"
      fill="var(--accent-orange, #ff6b00)"
       d="m 597.5,406.5 c 15,0 30,0 45,0 0,3 0,6 0,9 -5.333,0 -10.667,0 -16,0 -0.996,13.823 -1.329,27.823 -1,42 -3.667,0 -7.333,0 -11,0 0.329,-14.177 -0.004,-28.177 -1,-42 -5.333,0 -10.667,0 -16,0 0,-3 0,-6 0,-9 z"
       id="path60" />
  </g>
  <g
     id="g61"
     transform="translate(-115,-83)">
    <path
       style="opacity:1"
       fill="#b4b4b4"
       d="m 689.5,406.5 c -13,0 -26,0 -39,0 0,17 0,34 0,51 13.333,0 26.667,0 40,0 -13.49,0.996 -27.156,1.329 -41,1 0,-17.667 0,-35.333 0,-53 13.51,-0.329 26.844,0.004 40,1 z"
       id="path61" />
  </g>
  <g
     id="g62"
     transform="translate(-115,-83)">
   <path
      style="opacity:1"
      fill="var(--accent-orange, #ff6b00)"
       d="m 689.5,406.5 c 0,3 0,6 0,9 -9.333,0 -18.667,0 -28,0 -0.315,3.871 0.018,7.538 1,11 7.482,0.992 15.148,1.325 23,1 0,3 0,6 0,9 -8,0 -16,0 -24,0 -0.317,4.202 0.017,8.202 1,12 9.333,0 18.667,0 28,0 0,3 0,6 0,9 -13.333,0 -26.667,0 -40,0 0,-17 0,-34 0,-51 13,0 26,0 39,0 z"
       id="path62" />
  </g>
  <g
     id="g63"
     transform="translate(-115,-83)">
    <path
       style="opacity:1"
       fill="#9a9a9a"
       d="m 767.5,426.5 c -0.991,-6.479 -1.324,-13.146 -1,-20 -3.667,0 -7.333,0 -11,0 0,17 0,34 0,51 3.667,0 7.333,0 11,0 0,0.333 0,0.667 0,1 -4,0 -8,0 -12,0 0,-17.667 0,-35.333 0,-53 4.333,0 8.667,0 13,0 0,7 0,14 0,21 z"
       id="path63" />
  </g>
  <g
     id="g64"
     transform="translate(-115,-83)">
   <path
      style="opacity:1"
      fill="var(--accent-orange, #ff6b00)"
       d="m 767.5,426.5 c 7.667,0 15.333,0 23,0 0.991,-6.479 1.324,-13.146 1,-20 3.667,0 7.333,0 11,0 0,17 0,34 0,51 -3.667,0 -7.333,0 -11,0 0.325,-7.187 -0.009,-14.187 -1,-21 -8,0 -16,0 -24,0 0,7 0,14 0,21 -3.667,0 -7.333,0 -11,0 0,-17 0,-34 0,-51 3.667,0 7.333,0 11,0 -0.324,6.854 0.009,13.521 1,20 z"
       id="path64" />
  </g>
  <g
     id="g65"
     transform="translate(-115,-83)">
    <path
       style="opacity:1"
       fill="#8d8d8d"
       d="m 802.5,458.5 c 0,-0.333 0,-0.667 0,-1 0,-17 0,-34 0,-51 -3.667,0 -7.333,0 -11,0 0.324,6.854 -0.009,13.521 -1,20 0,-7 0,-14 0,-21 4.333,0 8.667,0 13,0 0.33,17.841 -0.003,35.508 -1,53 z"
       id="path65" />
  </g>
  <g
     id="g66"
     transform="translate(-115,-83)">
    <path
       style="opacity:1"
       fill="#040404"
       d="m 378.5,415.5 c 18.996,-0.041 25.162,8.959 18.5,27 -7.519,6.877 -15.685,7.71 -24.5,2.5 -6.23,-8.078 -6.563,-16.412 -1,-25 2.398,-1.524 4.731,-3.024 7,-4.5 z"
       id="path66" />
  </g>
  <g
     id="g67"
     transform="translate(-115,-83)">
    <path
       style="opacity:1"
       fill="#070707"
       d="m 493.5,415.5 c 5.413,-0.271 10.746,0.229 16,1.5 6.599,5.212 6.599,10.379 0,15.5 -5.272,0.9 -10.605,1.233 -16,1 0,-6 0,-12 0,-18 z"
       id="path67" />
  </g>
  <g
     id="g68"
     transform="translate(-115,-83)">
    <path
       style="opacity:1"
       fill="#aaaaaa"
       d="m 613.5,415.5 c 0.996,13.823 1.329,27.823 1,42 3.667,0 7.333,0 11,0 -0.329,-14.177 0.004,-28.177 1,-42 0,14.333 0,28.667 0,43 -4.333,0 -8.667,0 -13,0 0,-14.333 0,-28.667 0,-43 z"
       id="path68" />
  </g>
  <g
     id="g69"
     transform="translate(-115,-83)">
    <path
       style="opacity:1"
       fill="#a3a3a3"
       d="m 662.5,426.5 c 8,0 16,0 24,0 0,3.333 0,6.667 0,10 -0.333,0 -0.667,0 -1,0 0,-3 0,-6 0,-9 -7.852,0.325 -15.518,-0.008 -23,-1 z"
       id="path69" />
  </g>
  <g
     id="g70"
     transform="translate(-115,-83)">
    <path
       style="opacity:1"
       fill="#a4a4a4"
       d="m 698.5,422.5 c -0.754,4.963 -1.087,9.963 -1,15 -0.662,-1.804 -0.995,-3.804 -1,-6 -0.157,-3.314 0.509,-6.314 2,-9 z"
       id="path70" />
  </g>
  <g
     id="g71"
     transform="translate(-115,-83)">
    <path
       style="opacity:1"
       fill="#797979"
       d="m 493.5,415.5 c 0,6 0,12 0,18 5.395,0.233 10.728,-0.1 16,-1 -0.111,0.617 -0.444,1.117 -1,1.5 -5.323,0.499 -10.656,0.666 -16,0.5 -0.323,-6.522 0.01,-12.855 1,-19 z"
       id="path71" />
  </g>
  <g
     id="g72"
     transform="translate(-115,-83)">
    <path
       style="opacity:1"
       fill="#3f3f3f"
       d="m 685.5,436.5 c 0.333,0 0.667,0 1,0 -7.816,0.992 -15.816,1.326 -24,1 0,3.667 0,7.333 0,11 -0.983,-3.798 -1.317,-7.798 -1,-12 8,0 16,0 24,0 z"
       id="path72" />
  </g>
  <g
     id="g73"
     transform="translate(-115,-83)">
    <path
       style="opacity:1"
       fill="#585858"
       d="m 790.5,436.5 c 0,0.333 0,0.667 0,1 -7.667,0 -15.333,0 -23,0 0.325,7.187 -0.009,14.187 -1,21 0,-0.333 0,-0.667 0,-1 0,-7 0,-14 0,-21 8,0 16,0 24,0 z"
       id="path73" />
  </g>
  <g
     id="g74"
     transform="translate(-115,-83)">
    <path
       style="opacity:1"
       fill="#a5a5a5"
       d="m 790.5,436.5 c 0.991,6.813 1.325,13.813 1,21 3.667,0 7.333,0 11,0 0,0.333 0,0.667 0,1 -4,0 -8,0 -12,0 0,-7 0,-14 0,-21 0,-0.333 0,-0.667 0,-1 z"
       id="path74" />
  </g>
  <g
     id="g75"
     transform="translate(-115,-83)">
    <path
       style="opacity:1"
       fill="#b0b0b0"
       d="m 734.5,446.5 c -0.111,0.617 -0.444,1.117 -1,1.5 -5.238,2.144 -10.238,1.977 -15,-0.5 5.451,1.485 10.784,1.152 16,-1 z"
       id="path75" />
  </g>
  <g
     id="g76"
     transform="translate(-115,-83)">
    <path
       style="opacity:1"
       fill="#898989"
       d="m 320.5,457.5 c 5.964,0.807 11.964,1.14 18,1 -2.31,0.664 -4.81,0.997 -7.5,1 -3.805,0.196 -7.305,-0.47 -10.5,-2 z"
       id="path76" />
  </g>
  <g
     id="g77"
     transform="translate(-115,-83)">
    <path
       style="opacity:1"
       fill="#949494"
       d="m 370.5,456.5 c 6.544,1.632 13.211,2.299 20,2 -4.816,1.15 -9.816,1.316 -15,0.5 -1.815,-0.757 -3.481,-1.59 -5,-2.5 z"
       id="path77" />
  </g>
  <g
     id="g78"
     transform="translate(-115,-83)">
    <path
       style="opacity:1"
       fill="#888888"
       d="m 434.5,457.5 c 5.63,0.792 11.297,1.125 17,1 -2.141,0.663 -4.475,0.997 -7,1 -3.641,0.185 -6.974,-0.481 -10,-2 z"
       id="path78" />
  </g>
</svg>
